<svg width="1920" height="1080" viewBox="0 0 1920 1080" fill="none" xmlns="http://www.w3.org/2000/svg">
<g clip-path="url(#clip0_597_22185)">
<rect width="1920" height="1080" fill="#EFF4F2"/>
<path d="M1035.5 0C1035.5 0 535.895 315.073 577 449C618.105 582.927 958.581 750.178 1213.5 982C1253.98 1018.82 1287.15 1057.48 1290.5 1082.11C1061.04 1082.11 923.5 1082.11 923.5 1082.11H2.5V0H1035.5Z" fill="#00A76F" fill-opacity="0.2"/>
<path d="M892 0C892 0 409.692 315.154 452 449C494.308 582.846 1307.47 726.5 1209 991C1189.4 1043.65 1171.77 1048.76 1144.92 1080.53C933.561 1080.53 788.5 1080.53 788.5 1080.53H0V0H892Z" fill="#00A76F" fill-opacity="0.4"/>
<path d="M777.5 1.09961C777.5 1.09961 293.879 326.022 335 460C376.121 593.978 1000.16 751.243 1081.5 872C1162.84 992.757 1031 1082.11 1031 1082.11H0.5V1.09961H777.5Z" fill="#00A76F"/>
</g>
<defs>
<clipPath id="clip0_597_22185">
<rect width="1920" height="1080" fill="white"/>
</clipPath>
</defs>
</svg>